<svg xmlns="http://www.w3.org/2000/svg" viewBox="0 0 1761.21 270.81"><defs><style>.cls-1{isolation:isolate;}.cls-2{fill:none;}.cls-3,.cls-6{fill:#132147;}.cls-4,.cls-5{fill:#466cf9;}.cls-4,.cls-6{mix-blend-mode:multiply;}</style></defs><title>full-logo-colour</title><g class="cls-1"><g id="Layer_1" data-name="Layer 1"><path class="cls-2" d="M526.5,146.14h0V146h0S526.5,146.1,526.5,146.14Z"/><path class="cls-2" d="M930.6,7.77A18.23,18.23,0,1,0,948.84,26,18.25,18.25,0,0,0,930.6,7.77Z"/><path class="cls-2" d="M1031.29,81c-31.24,0-55.81,24-58.73,57.06H1085C1082.79,103.6,1062.11,81,1031.29,81Z"/><path class="cls-2" d="M526.54,145.46c0,.19,0,.38,0,.58,0-.19,0-.38,0-.57Z"/><path class="cls-2" d="M1455,81c-31.24,0-55.81,24-58.73,57.06h112.45C1506.51,103.6,1485.82,81,1455,81Z"/><circle class="cls-3" cx="1733.1" cy="192.5" r="24.2"/><path class="cls-4" d="M926.05,237.57c0,19.44-9,26.52-21.94,26.52-4.86,0-11.94-1-17.63-4.58l-.69,6.8a43.77,43.77,0,0,0,17.91,4.17h0c22.63,0,28.6-16.1,28.6-32.9v-162h-6.25Z"/><path class="cls-4" d="M1031.29,74.58c-36.93,0-65.39,29.71-65.39,70s27.21,69.69,65.94,69.69c23.74,0,41.79-9.72,53.59-25.68l-4.86-3.61c-11.11,14.16-27.49,22.9-49.29,22.9-34.57,0-59-26.79-59-63.3v-.28h118.84a34.54,34.54,0,0,0,.28-4C1091.4,102.63,1067,74.58,1031.29,74.58ZM972.56,138c2.91-33,27.49-57.06,58.73-57.06,30.82,0,51.51,22.63,53.73,57.06Z"/><path class="cls-4" d="M1190.81,74.58c-27.08,0-47.76,14.3-57.62,37.76h-.28V75.56h-6.25V213.28h6.25v-68c0-38.46,23.19-64.28,57.9-64.28,22.49,0,41.09,14,41.09,52.48v79.83h6.25V130.39C1238.15,94.57,1219.83,74.58,1190.81,74.58Z"/><path class="cls-4" d="M1315.48,138.17c-18-6.52-34.57-12.63-34.57-31.1,0-14.16,14.3-26.1,33.46-26.1,13.74,0,26.52,2.92,40.4,14.58l4.17-4.58c-14.86-12.63-30-16.38-44.84-16.38-22.21,0-39.57,14.3-39.57,33,0,21.38,17.91,28.88,40,36.93,24.16,8.75,43.59,12.63,43.59,34.15,0,15.27-14.58,29.15-39.71,29.15-23.46,0-36.23-8.61-46.79-17.77l-3.75,4.86c11.25,10.14,26.93,19.3,50.53,19.3h0c29.71,0,45.81-16.52,46.09-35C1364.9,153.3,1344.22,148.44,1315.48,138.17Z"/><path class="cls-4" d="M1455,74.58c-36.93,0-65.39,29.71-65.39,70s27.21,69.69,65.94,69.69c23.74,0,41.79-9.72,53.59-25.68l-4.86-3.61c-11.11,14.16-27.49,22.9-49.29,22.9-34.57,0-59-26.79-59-63.3v-.28h118.84a34.54,34.54,0,0,0,.28-4C1515.12,102.63,1490.68,74.58,1455,74.58ZM1396.28,138C1399.19,105,1423.77,81,1455,81c30.82,0,51.51,22.63,53.73,57.06Z"/><path class="cls-4" d="M1614.52,74.58h0c-27.07,0-47.76,14.3-57.62,37.76h-.28V75.56h-6.25V213.28h6.25v-68c0-38.46,23.19-64.28,57.9-64.28,22.49,0,41.09,14,41.09,52.48v79.83h6.25V130.39C1661.87,94.57,1643.54,74.58,1614.52,74.58Z"/><path class="cls-5" d="M122.35,95.85a71.11,71.11,0,1,0,0,100.57L72.06,146.14Z"/><path class="cls-3" d="M143,141c0-.6-.08-1.21-.14-1.81s-.16-1.38-.25-2.07c-.06-.45-.11-.9-.17-1.35-.11-.75-.24-1.5-.38-2.24-.07-.39-.13-.78-.21-1.16-.15-.76-.32-1.51-.49-2.26-.09-.38-.17-.76-.26-1.13-.18-.72-.38-1.44-.58-2.16-.11-.4-.22-.81-.34-1.21-.2-.67-.42-1.33-.64-2-.15-.45-.3-.91-.46-1.36s-.44-1.18-.67-1.76-.39-1-.6-1.53-.44-1-.66-1.52-.51-1.15-.78-1.71-.42-.85-.63-1.28c-.31-.62-.62-1.25-1-1.86-.2-.37-.41-.73-.61-1.1-.37-.65-.73-1.3-1.12-1.94-.2-.33-.41-.66-.62-1-.41-.65-.82-1.3-1.24-1.94-.22-.33-.45-.65-.68-1-.43-.62-.87-1.25-1.32-1.85-.27-.36-.55-.71-.83-1.07-.43-.55-.85-1.11-1.3-1.65s-.78-.91-1.17-1.36-.72-.85-1.1-1.27q-1.18-1.3-2.42-2.55L72.06,146.14l50.28,50.28q1.25-1.25,2.42-2.55c.38-.41.73-.85,1.1-1.27s.79-.9,1.17-1.36.87-1.1,1.3-1.65c.28-.36.56-.71.83-1.07.45-.61.88-1.23,1.31-1.85.23-.33.46-.65.68-1,.43-.64.83-1.28,1.24-1.93.21-.33.42-.66.62-1,.38-.64.75-1.29,1.11-1.94.21-.37.42-.73.61-1.1.33-.61.64-1.24,1-1.86.21-.43.43-.85.64-1.29s.52-1.14.77-1.71.45-1,.66-1.52.4-1,.6-1.53.46-1.18.67-1.77.31-.9.46-1.36c.22-.66.44-1.32.64-2,.12-.4.23-.81.34-1.21.2-.72.4-1.44.58-2.16.09-.37.17-.75.26-1.13.17-.75.35-1.5.49-2.26.08-.38.14-.77.21-1.16.13-.75.27-1.49.38-2.24.07-.45.11-.9.17-1.35.09-.69.18-1.38.25-2.08s.09-1.21.14-1.81.09-1.1.12-1.65c.06-1.17.09-2.34.09-3.52s0-2.35-.09-3.52C143.06,142.07,143,141.52,143,141Z"/><circle class="cls-3" cx="661.62" cy="26.01" r="24.2"/><path class="cls-5" d="M930.6,1.81A24.2,24.2,0,1,0,954.81,26,24.2,24.2,0,0,0,930.6,1.81Zm0,42.44A18.23,18.23,0,1,1,948.84,26,18.25,18.25,0,0,1,930.6,44.24Z"/><path class="cls-5" d="M526.5,146.14s0-.07,0-.1H479.65v-2.31c0,.8-.06,1.6-.06,2.41s0,1.61.06,2.41v-2.41Z"/><path class="cls-5" d="M316.63,146.14V213h46.91A71.14,71.14,0,0,1,316.63,146.14Z"/><path class="cls-3" d="M316.63,146.14h0A71.14,71.14,0,0,0,363.55,213V146.14H316.63Z"/><path class="cls-5" d="M485.69,174.93q-1.29-2.91-2.32-6-.92-2.73-1.63-5.55-.45-1.79-.81-3.62c-.07-.38-.13-.77-.19-1.15-.15-.84-.31-1.69-.43-2.54,0-.3-.07-.61-.1-.91-.12-.94-.24-1.89-.33-2.84,0-.32,0-.65-.06-1-.07-.94-.14-1.88-.17-2.83V213h46.91c-2.11-.76-4.16-1.63-6.17-2.58A71.34,71.34,0,0,1,485.69,174.93Z"/><path class="cls-5" d="M526.54,146.93v-.8h0C526.5,146.41,526.52,146.67,526.54,146.93Z"/><path class="cls-5" d="M526.56,213h0c-2.11-.76-4.16-1.63-6.17-2.58C522.4,211.41,524.46,212.28,526.56,213Z"/><path class="cls-6" d="M526.56,213h0c-2.11-.76-4.16-1.63-6.17-2.58C522.4,211.41,524.46,212.28,526.56,213Z"/><path class="cls-5" d="M479.65,148.55h0c0,.95.1,1.89.17,2.83C479.76,150.44,479.69,149.5,479.65,148.55Z"/><path class="cls-6" d="M479.65,148.55h0c0,.95.1,1.89.17,2.83C479.76,150.44,479.69,149.5,479.65,148.55Z"/><path class="cls-5" d="M526.5,146.14c0,.27,0,.53,0,.8h0C526.52,146.67,526.5,146.41,526.5,146.14Z"/><path class="cls-6" d="M526.5,146.14c0,.27,0,.53,0,.8h0C526.52,146.67,526.5,146.41,526.5,146.14Z"/><path class="cls-3" d="M526.56,101.08V79.23c-1.19.43-2.36.9-3.51,1.39q-1.34.57-2.66,1.19Q518,83,515.64,84.28A71.27,71.27,0,0,0,482.81,125q-.4,1.28-.75,2.57-.88,3.26-1.45,6.64a71.46,71.46,0,0,0-1,9.53h0v4.82h0c0,1,.1,1.89.17,2.83,0,.32,0,.65.06,1,.08,1,.2,1.9.33,2.84,0,.3.06.61.1.91.12.85.28,1.7.43,2.54.07.38.12.77.19,1.15q.36,1.83.81,3.62.7,2.82,1.63,5.55,1,3,2.32,6a71.34,71.34,0,0,0,34.71,35.53c2,.95,4.07,1.82,6.17,2.58V180.79l0-33.86c0-.26,0-2.68,0-2.95h0l0-42.91Z"/><path class="cls-5" d="M526.51,146h0v-.57C526.53,145.65,526.51,145.84,526.51,146Z"/><polygon class="cls-5" points="685.38 146.14 685.38 76.42 638.47 76.42 638.47 146.14 638.47 149.02 638.47 213.04 685.38 213.04 685.38 149.02 685.38 146.14"/><path class="cls-5" d="M482.07,127.55q.35-1.3.75-2.57a71.27,71.27,0,0,1,32.83-40.7Q518,83,520.39,81.81q1.32-.62,2.66-1.19c1.16-.49,2.33-1,3.51-1.39V3.71H479.65v140a71.43,71.43,0,0,1,1-9.53Q481.19,130.81,482.07,127.55Z"/><path class="cls-5" d="M479.65,143.72h0a71.46,71.46,0,0,1,1-9.53A71.43,71.43,0,0,0,479.65,143.72Z"/><path class="cls-5" d="M709.69,146.14V213H756.6A71.14,71.14,0,0,1,709.69,146.14Z"/><path class="cls-3" d="M709.69,146.14h0A71.14,71.14,0,0,0,756.6,213V146.14H709.69Z"/><path class="cls-5" d="M805,213h46.91V146.14A71.14,71.14,0,0,1,805,213Z"/><path class="cls-3" d="M805.29,146.14H805V213a71.14,71.14,0,0,0,46.91-66.88H805.29Z"/><path class="cls-5" d="M526.54,145.42v0h0Z"/><path class="cls-5" d="M550.71,75a71,71,0,0,0-24.14,4.21v65.69h0V146h0v.1h0v1.21h0V213A71.12,71.12,0,1,0,550.71,75Z"/><path class="cls-5" d="M526.56,147.34v-1.21h0v.8C526.55,147.07,526.56,147.21,526.56,147.34Z"/><path class="cls-5" d="M526.56,180.79V147.35c0-.14,0-.27,0-.41Z"/><path class="cls-5" d="M526.54,146.94c0,.14,0,.27,0,.41h0c0-.14,0-.27,0-.41Z"/><path class="cls-5" d="M526.54,145.46v0c0-.16,0-.33,0-.49V101.08h-.06Z"/><path class="cls-5" d="M526.54,145.46V146h0v-1.11c0,.16,0,.33,0,.49Z"/><path class="cls-5" d="M526.56,144.93h0c0,.16,0,.33,0,.49C526.55,145.26,526.56,145.09,526.56,144.93Z"/><circle class="cls-5" cx="228.29" cy="146.14" r="71.11"/><path class="cls-5" d="M387.75,75a71.11,71.11,0,0,0-71.11,71.11H458.86A71.11,71.11,0,0,0,387.75,75Z"/><path class="cls-5" d="M780.8,75a71.11,71.11,0,0,0-71.11,71.11H851.92A71.11,71.11,0,0,0,780.8,75Z"/></g></g></svg>